<svg xmlns="http://www.w3.org/2000/svg" xmlns:xlink="http://www.w3.org/1999/xlink" width="500" zoomAndPan="magnify" viewBox="0 0 375 60" height="80" preserveAspectRatio="xMidYMid meet" version="1.0"><defs><g/><clipPath id="5a344984ec"><path d="M 24.613281 23.917969 L 38.542969 23.917969 L 38.542969 50.941406 L 24.613281 50.941406 Z M 24.613281 23.917969 " clip-rule="nonzero"/></clipPath><clipPath id="baf9d735b1"><path d="M 0.75 6.863281 L 14.679688 6.863281 L 14.679688 35.226562 L 0.75 35.226562 Z M 0.75 6.863281 " clip-rule="nonzero"/></clipPath><clipPath id="f73ef26c6f"><path d="M 0.746094 37.410156 L 22.402344 37.410156 L 22.402344 50.921875 L 0.746094 50.921875 Z M 0.746094 37.410156 " clip-rule="nonzero"/></clipPath><clipPath id="7589a00610"><path d="M 16.882812 7.515625 L 38.539062 7.515625 L 38.539062 21.027344 L 16.882812 21.027344 Z M 16.882812 7.515625 " clip-rule="nonzero"/></clipPath></defs><g fill="#8c52ff" fill-opacity="1"><g transform="translate(46.292609, 49.472104)"><g><path d="M 24.238281 -24.113281 C 21.714844 -25.121094 12.433594 -26.511719 12.433594 -30.363281 C 12.433594 -33.203125 15.90625 -34.023438 17.988281 -34.023438 C 19.882812 -34.023438 22.15625 -33.453125 23.355469 -32.320312 C 24.113281 -31.5625 24.429688 -31.054688 24.679688 -30.425781 C 24.996094 -29.605469 25.1875 -28.71875 26.386719 -28.71875 L 32.570312 -28.71875 C 34.023438 -28.71875 34.402344 -28.972656 34.402344 -30.488281 C 34.402344 -38.820312 25.628906 -42.480469 17.609375 -42.480469 C 9.722656 -42.164062 2.273438 -38.125 2.273438 -29.917969 C 2.273438 -21.902344 8.144531 -19.378906 14.519531 -17.359375 C 19.882812 -15.652344 25.5 -15.589844 25.5 -12.054688 C 25.5 -8.519531 22.722656 -7.765625 19.316406 -7.765625 C 16.980469 -7.765625 14.390625 -8.332031 13.128906 -9.847656 C 12.308594 -10.792969 11.992188 -11.613281 11.929688 -12.433594 C 11.804688 -14.011719 11.109375 -14.203125 9.65625 -14.203125 L 3.535156 -14.203125 C 2.082031 -14.203125 1.703125 -13.886719 1.703125 -12.433594 C 1.703125 -3.597656 10.792969 0.945312 18.683594 0.945312 C 28.40625 0.945312 35.472656 -3.34375 35.472656 -12.308594 C 35.472656 -20.894531 28.785156 -22.722656 24.238281 -24.113281 Z M 24.238281 -24.113281 "/></g></g></g><g fill="#2b2b2b" fill-opacity="1"><g transform="translate(78.682728, 49.472104)"><g><path d="M 35.726562 -41.535156 L 29.476562 -41.535156 C 28.34375 -41.535156 27.648438 -41.15625 27.648438 -39.703125 L 27.648438 -14.078125 C 27.648438 -10.097656 24.996094 -7.828125 20.832031 -7.828125 C 16.664062 -7.828125 14.078125 -10.097656 14.078125 -14.078125 L 14.078125 -39.703125 C 14.078125 -41.15625 13.382812 -41.535156 12.246094 -41.535156 L 5.996094 -41.535156 C 4.859375 -41.535156 4.167969 -41.15625 4.167969 -39.703125 L 4.167969 -12.6875 C 4.167969 -2.777344 13.320312 0.945312 20.832031 0.945312 C 28.34375 0.945312 37.558594 -2.777344 37.558594 -12.6875 L 37.558594 -39.703125 C 37.558594 -41.15625 36.863281 -41.535156 35.726562 -41.535156 Z M 35.726562 -41.535156 "/></g></g></g><g fill="#2b2b2b" fill-opacity="1"><g transform="translate(114.597524, 49.472104)"><g><path d="M 20.703125 -41.535156 L 6.5 -41.535156 C 5.050781 -41.535156 4.671875 -40.839844 4.671875 -39.703125 L 4.671875 -1.832031 C 4.671875 -0.378906 5.367188 0 6.5 0 L 12.75 0 C 13.886719 0 14.582031 -0.378906 14.582031 -1.832031 L 14.582031 -12.308594 L 20.640625 -12.308594 C 31.433594 -12.308594 37.242188 -18.117188 37.242188 -26.890625 C 37.242188 -35.601562 31.5625 -41.535156 20.703125 -41.535156 Z M 20.640625 -20.832031 L 14.582031 -20.832031 L 14.582031 -32.632812 L 20.640625 -32.632812 C 25.5625 -32.632812 27.710938 -29.984375 27.710938 -26.699219 C 27.710938 -23.542969 25.5625 -20.832031 20.640625 -20.832031 Z M 20.640625 -20.832031 "/></g></g></g><g fill="#2b2b2b" fill-opacity="1"><g transform="translate(148.429368, 49.472104)"><g><path d="M 34.78125 -8.835938 L 14.644531 -8.835938 L 14.644531 -17.167969 L 31.5625 -17.167969 C 33.011719 -17.167969 33.390625 -17.863281 33.390625 -19 L 33.390625 -23.921875 C 33.390625 -25.058594 33.011719 -25.753906 31.5625 -25.753906 L 14.644531 -25.753906 L 14.644531 -32.632812 L 33.707031 -32.632812 C 35.160156 -32.632812 35.539062 -33.328125 35.539062 -34.464844 L 35.539062 -39.703125 C 35.539062 -40.839844 35.160156 -41.535156 33.707031 -41.535156 L 6.5 -41.535156 C 5.050781 -41.535156 4.671875 -40.839844 4.671875 -39.703125 L 4.671875 -1.832031 C 4.671875 -0.695312 5.050781 0 6.5 0 L 34.78125 0 C 36.230469 0 36.609375 -0.695312 36.609375 -1.832031 L 36.609375 -7.007812 C 36.609375 -8.144531 36.230469 -8.835938 34.78125 -8.835938 Z M 34.78125 -8.835938 "/></g></g></g><g fill="#2b2b2b" fill-opacity="1"><g transform="translate(182.198096, 49.472104)"><g><path d="M 38.695312 -2.019531 L 29.792969 -14.960938 C 33.707031 -16.285156 38.566406 -20.894531 38.566406 -27.519531 C 38.566406 -31.5625 37.242188 -35.160156 34.90625 -37.429688 C 32.253906 -40.082031 29.226562 -41.472656 22.34375 -41.472656 L 6.4375 -41.472656 C 4.988281 -41.472656 4.671875 -40.777344 4.671875 -39.640625 L 4.671875 -1.832031 C 4.671875 -0.378906 5.300781 0 6.4375 0 L 12.6875 0 C 13.824219 0 14.519531 -0.378906 14.519531 -1.832031 L 14.519531 -32.632812 L 22.914062 -32.632812 C 26.195312 -32.632812 28.71875 -30.550781 28.71875 -27.269531 C 28.71875 -24.300781 25.816406 -22.15625 22.722656 -22.15625 L 21.460938 -22.15625 C 20.007812 -22.15625 19.632812 -21.460938 19.632812 -20.324219 L 19.632812 -15.277344 C 19.632812 -13.507812 19.757812 -12.8125 20.324219 -12.054688 L 27.140625 -1.894531 C 28.027344 -0.566406 28.785156 0 30.296875 0 L 37.746094 0 C 38.945312 0 39.261719 -1.136719 38.695312 -2.019531 Z M 38.695312 -2.019531 "/></g></g></g><g fill="#8c52ff" fill-opacity="1"><g transform="translate(218.435634, 49.472104)"><g><path d="M 41.914062 -41.597656 L 35.851562 -41.597656 C 33.769531 -41.597656 33.453125 -40.207031 33.011719 -39.453125 L 24.300781 -23.921875 L 15.652344 -39.453125 C 15.148438 -40.207031 14.898438 -41.597656 12.75 -41.597656 L 6.5 -41.597656 C 5.050781 -41.597656 4.671875 -40.902344 4.671875 -39.765625 L 4.671875 -1.832031 C 4.671875 -0.378906 5.367188 0 6.5 0 L 12.75 0 C 13.886719 0 14.582031 -0.378906 14.582031 -1.832031 L 14.582031 -23.230469 L 20.957031 -12.183594 C 21.273438 -11.675781 21.777344 -10.855469 22.722656 -10.855469 L 25.878906 -10.855469 C 26.828125 -10.855469 27.394531 -11.675781 27.710938 -12.183594 L 34.023438 -23.230469 L 34.023438 -1.832031 C 34.023438 -0.378906 34.71875 0 35.851562 0 L 41.914062 0 C 43.050781 0 43.742188 -0.378906 43.742188 -1.832031 L 43.742188 -39.765625 C 43.742188 -40.902344 43.363281 -41.597656 41.914062 -41.597656 Z M 41.914062 -41.597656 "/></g></g></g><g fill="#2b2b2b" fill-opacity="1"><g transform="translate(261.043532, 49.472104)"><g><path d="M 34.78125 -8.835938 L 14.644531 -8.835938 L 14.644531 -17.167969 L 31.5625 -17.167969 C 33.011719 -17.167969 33.390625 -17.863281 33.390625 -19 L 33.390625 -23.921875 C 33.390625 -25.058594 33.011719 -25.753906 31.5625 -25.753906 L 14.644531 -25.753906 L 14.644531 -32.632812 L 33.707031 -32.632812 C 35.160156 -32.632812 35.539062 -33.328125 35.539062 -34.464844 L 35.539062 -39.703125 C 35.539062 -40.839844 35.160156 -41.535156 33.707031 -41.535156 L 6.5 -41.535156 C 5.050781 -41.535156 4.671875 -40.839844 4.671875 -39.703125 L 4.671875 -1.832031 C 4.671875 -0.695312 5.050781 0 6.5 0 L 34.78125 0 C 36.230469 0 36.609375 -0.695312 36.609375 -1.832031 L 36.609375 -7.007812 C 36.609375 -8.144531 36.230469 -8.835938 34.78125 -8.835938 Z M 34.78125 -8.835938 "/></g></g></g><g fill="#2b2b2b" fill-opacity="1"><g transform="translate(294.812262, 49.472104)"><g><path d="M 41.914062 -41.597656 L 35.851562 -41.597656 C 33.769531 -41.597656 33.453125 -40.207031 33.011719 -39.453125 L 24.300781 -23.921875 L 15.652344 -39.453125 C 15.148438 -40.207031 14.898438 -41.597656 12.75 -41.597656 L 6.5 -41.597656 C 5.050781 -41.597656 4.671875 -40.902344 4.671875 -39.765625 L 4.671875 -1.832031 C 4.671875 -0.378906 5.367188 0 6.5 0 L 12.75 0 C 13.886719 0 14.582031 -0.378906 14.582031 -1.832031 L 14.582031 -23.230469 L 20.957031 -12.183594 C 21.273438 -11.675781 21.777344 -10.855469 22.722656 -10.855469 L 25.878906 -10.855469 C 26.828125 -10.855469 27.394531 -11.675781 27.710938 -12.183594 L 34.023438 -23.230469 L 34.023438 -1.832031 C 34.023438 -0.378906 34.71875 0 35.851562 0 L 41.914062 0 C 43.050781 0 43.742188 -0.378906 43.742188 -1.832031 L 43.742188 -39.765625 C 43.742188 -40.902344 43.363281 -41.597656 41.914062 -41.597656 Z M 41.914062 -41.597656 "/></g></g></g><g fill="#2b2b2b" fill-opacity="1"><g transform="translate(337.417734, 49.472104)"><g><path d="M 37.304688 -13.320312 L 37.304688 -28.214844 C 37.304688 -38.1875 27.835938 -42.480469 20.324219 -42.480469 C 12.8125 -42.480469 3.472656 -38.1875 3.472656 -28.214844 L 3.472656 -13.320312 C 3.472656 -3.34375 12.8125 0.945312 20.324219 0.945312 C 27.835938 0.945312 37.304688 -3.34375 37.304688 -13.320312 Z M 27.394531 -27.332031 L 27.394531 -14.203125 C 27.394531 -10.164062 24.492188 -7.828125 20.324219 -7.828125 C 16.222656 -7.828125 13.320312 -10.164062 13.320312 -14.203125 L 13.320312 -27.332031 C 13.320312 -31.371094 16.222656 -33.707031 20.324219 -33.707031 C 24.492188 -33.707031 27.394531 -31.371094 27.394531 -27.332031 Z M 27.394531 -27.332031 "/></g></g></g><g clip-path="url(#5a344984ec)"><path fill="#8c52ff" d="M 24.613281 23.917969 L 38.542969 23.917969 L 38.542969 50.941406 L 24.613281 50.941406 Z M 24.613281 23.917969 " fill-opacity="1" fill-rule="nonzero"/></g><g clip-path="url(#baf9d735b1)"><path fill="#8c52ff" d="M 0.75 6.863281 L 14.679688 6.863281 L 14.679688 35.226562 L 0.75 35.226562 Z M 0.75 6.863281 " fill-opacity="1" fill-rule="nonzero"/></g><g clip-path="url(#f73ef26c6f)"><path fill="#2b2b2b" d="M 0.746094 50.921875 L 0.746094 37.410156 L 22.402344 37.410156 L 22.402344 50.921875 Z M 0.746094 50.921875 " fill-opacity="1" fill-rule="nonzero"/></g><g clip-path="url(#7589a00610)"><path fill="#2b2b2b" d="M 16.882812 21.027344 L 16.882812 7.515625 L 38.539062 7.515625 L 38.539062 21.027344 Z M 16.882812 21.027344 " fill-opacity="1" fill-rule="nonzero"/></g></svg>